<?xml version="1.0" encoding="utf-8"?>
<!-- Generator: Adobe Illustrator 26.4.1, SVG Export Plug-In . SVG Version: 6.00 Build 0)  -->
<svg version="1.1" id="Layer_1" xmlns="http://www.w3.org/2000/svg" xmlns:xlink="http://www.w3.org/1999/xlink" x="0px" y="0px"
	 viewBox="0 0 62 62" style="enable-background:new 0 0 62 62;" xml:space="preserve">
<style type="text/css">
	.st0{fill:#E2E5E7;}
	.st1{fill:#B0B7BD;}
	.st2{fill:#CAD1D8;}
	.st3{fill:#50BEE8;}
	.st4{display:none;}
	.st5{display:inline;fill:#FFFFFF;}
	.st6{fill:#FFFFFF;}
	.st7{font-family:'ArialRoundedMTBold';}
	.st8{font-size:14.9626px;}
</style>
<g id="Layer_1_00000144318775794907115740000008094267031903519373_">
	<path class="st0" d="M15.5,0c-2.1,0-3.9,1.7-3.9,3.9v54.2c0,2.1,1.7,3.9,3.9,3.9h38.8c2.1,0,3.9-1.7,3.9-3.9V15.5L42.6,0H15.5z"/>
	<path class="st1" d="M46.5,15.5h11.6L42.6,0v11.6C42.6,13.8,44.4,15.5,46.5,15.5z"/>
	<path class="st2" d="M58.1,27.1L46.5,15.5h11.6V27.1z"/>
	<path class="st3" d="M50.4,50.4c0,1.1-0.9,1.9-1.9,1.9H5.8c-1.1,0-1.9-0.9-1.9-1.9V31c0-1.1,0.9-1.9,1.9-1.9h42.6
		c1.1,0,1.9,0.9,1.9,1.9v19.4H50.4z"/>
	<path class="st2" d="M48.4,52.3H11.6v1.9h36.8c1.1,0,1.9-0.9,1.9-1.9v-1.9C50.4,51.4,49.5,52.3,48.4,52.3z"/>
</g>
<g id="Layer_2_00000093882619356394038450000012272018805709903004_" class="st4">
	<path class="st5" d="M11.2,46.5c-0.5,0-1.1-0.3-1.1-1v-8.8c0-0.6,0.6-1,1.1-1h3.5c7.1,0,6.9,10.7,0.1,10.7L11.2,46.5L11.2,46.5z
		 M12.2,37.7v6.9h2.6c4.2,0,4.4-6.9,0-6.9H12.2z"/>
	<path class="st5" d="M27.6,46.7c-2.9,0.1-5.8-1.8-5.8-5.6s3-5.7,5.8-5.7c2.7,0.1,5.5,2,5.5,5.7C33.2,44.8,30.3,46.7,27.6,46.7z
		 M27.4,37.4c-1.7,0-3.6,1.2-3.6,3.7c0,2.4,1.9,3.7,3.6,3.7c1.8,0,3.7-1.2,3.7-3.7C31.1,38.6,29.2,37.4,27.4,37.4z"/>
	<path class="st5" d="M35,41.1c0-3,1.9-5.6,5.4-5.6c1.3,0,2.4,0.4,3.5,1.4c0.4,0.4,0.5,1.1,0,1.5c-0.4,0.4-1.1,0.3-1.4,0
		c-0.6-0.7-1.3-0.9-2.2-0.9c-2.4,0-3.5,1.7-3.5,3.6c0,1.9,1.1,3.7,3.5,3.7c0.9,0,1.7-0.4,2.4-1c0.5-0.4,1.1-0.2,1.4,0.2
		c0.2,0.3,0.4,0.9-0.2,1.5c-1.1,1-2.4,1.2-3.7,1.2C36.7,46.6,35,44.1,35,41.1z"/>
</g>
<g id="Layer_3">
	<text transform="matrix(1 0 0 1 9.749 46.181)" class="st6 st7 st8">DOC</text>
</g>
</svg>
